<svg xmlns="http://www.w3.org/2000/svg" width="480pt" height="290pt" viewBox="0 0 480 290" version="1.1" xmlns:xlink="http://www.w3.org/1999/xlink">
  <g id="surface2" transform="matrix(1,0,0,1,2,-2)">
    <path style="stroke:none;fill-rule:evenodd;fill:rgb(81.176471%,29.803922%,20.000000%);fill-opacity:1" d="M 296.199219 97.199219 C 294.535156 101.535156 291.851562 105.851562 288.148438 110.148438 C 284.484375 114.449219 279.984375 118.535156 274.648438 122.398438 C 269.316406 126.265625 263.316406 129.699219 256.648438 132.699219 C 249.285156 135.933594 242.082031 138.214844 235.050781 139.550781 C 227.984375 140.917969 221.433594 141.351562 215.398438 140.851562 C 209.398438 140.351562 204.250000 138.964844 199.949219 136.699219 C 195.648438 134.464844 192.566406 131.351562 190.699219 127.351562 C 188.898438 123.250000 188.617188 118.800781 189.851562 114.000000 C 191.082031 109.234375 193.617188 104.417969 197.449219 99.550781 C 201.250000 94.683594 206.117188 90.066406 212.050781 85.699219 C 207.582031 90.035156 204.433594 94.515625 202.601562 99.148438 C 200.734375 103.750000 200.484375 108.183594 201.851562 112.449219 C 203.148438 116.250000 205.601562 119.398438 209.199219 121.898438 C 212.800781 124.367188 217.234375 126.117188 222.500000 127.148438 C 227.765625 128.148438 233.566406 128.382812 239.898438 127.851562 C 246.199219 127.316406 252.734375 125.917969 259.500000 123.648438 C 265.265625 121.714844 270.535156 119.367188 275.300781 116.601562 C 280.101562 113.800781 284.265625 110.750000 287.800781 107.449219 C 291.367188 104.148438 294.167969 100.734375 296.199219 97.199219 "/>
    <path style="stroke:none;fill-rule:evenodd;fill:rgb(34.509804%,34.901961%,35.686275%);fill-opacity:1" d="M 239.500000 113.351562 L 250.351562 113.351562 L 250.351562 102.500000 L 239.500000 102.500000 L 239.500000 113.351562 M 223.050781 113.351562 L 233.898438 113.351562 L 233.898438 102.500000 L 223.050781 102.500000 L 223.050781 113.351562 M 239.500000 97.449219 L 250.351562 97.449219 L 250.351562 86.601562 L 239.500000 86.601562 L 239.500000 97.449219 M 223.050781 86.601562 L 233.898438 86.601562 L 233.898438 97.449219 L 223.050781 97.449219 L 223.050781 86.601562 "/>
    <path style="stroke:none;fill-rule:evenodd;fill:rgb(81.176471%,29.803922%,20.000000%);fill-opacity:1" d="M 267.500000 117.699219 C 273.265625 114.832031 278.464844 111.582031 283.101562 107.949219 L 283.050781 86.898438 L 291.851562 86.898438 L 229.800781 53.449219 L 229.800781 61.300781 L 267.500000 86.898438 L 267.500000 117.699219 "/>
  </g>
  <g id="surface4">
    <text style="fill:rgb(88,89,91)" font-family="Helvetica" font-size="50" transform="matrix(1,0,0,1,159.2,190.5)" xml:space="preserve"><![CDATA[Kelmer]]></text>
    <text style="fill:rgb(88,89,91)" font-family="Helvetica" font-size="35" transform="matrix(1,0,0,1,107.94999999999999,242)" xml:space="preserve"><![CDATA[Building Services]]></text>
  </g>
</svg>